<svg width="145" height="26" viewBox="0 0 145 26" fill="none" xmlns="http://www.w3.org/2000/svg">
<path d="M17.208 8.53517C17.208 8.53517 17.004 8.41563 16.596 8.17655C16.188 7.93747 15.648 7.67448 14.976 7.38759C14.304 7.07678 13.572 6.80184 12.78 6.56276C11.988 6.32368 11.208 6.20414 10.44 6.20414C9.84 6.20414 9.348 6.29977 8.964 6.49103C8.58 6.6823 8.388 7.00506 8.388 7.45931C8.388 7.88966 8.58 8.23632 8.964 8.49931C9.348 8.7623 9.888 9.00138 10.584 9.21655C11.304 9.43172 12.156 9.69471 13.14 10.0055C14.724 10.4837 16.092 11.0336 17.244 11.6552C18.396 12.2768 19.284 13.0777 19.908 14.0579C20.532 15.0143 20.844 16.2933 20.844 17.8952C20.844 19.4253 20.568 20.7163 20.016 21.7683C19.464 22.7963 18.72 23.6211 17.784 24.2428C16.848 24.8644 15.804 25.3186 14.652 25.6055C13.5 25.8685 12.324 26 11.124 26C9.9 26 8.616 25.8805 7.272 25.6414C5.952 25.3784 4.668 25.0317 3.42 24.6014C2.172 24.1471 1.032 23.6212 0 23.0234L3.024 16.891C3.024 16.891 3.264 17.0345 3.744 17.3214C4.224 17.6083 4.86 17.931 5.652 18.2897C6.444 18.6483 7.32 18.971 8.28 19.2579C9.264 19.5448 10.248 19.6883 11.232 19.6883C12 19.6883 12.528 19.5926 12.816 19.4014C13.128 19.1862 13.284 18.9113 13.284 18.5766C13.284 18.0745 13.02 17.692 12.492 17.429C11.964 17.1421 11.268 16.8791 10.404 16.64C9.564 16.377 8.628 16.0782 7.596 15.7434C6.108 15.2414 4.884 14.6795 3.924 14.0579C2.964 13.4124 2.256 12.6593 1.8 11.7986C1.344 10.914 1.116 9.85011 1.116 8.6069C1.116 6.71816 1.56 5.14023 2.448 3.8731C3.336 2.60598 4.5 1.64966 5.94 1.00414C7.404 0.334713 8.976 0 10.656 0C11.904 0 13.104 0.155402 14.256 0.466207C15.432 0.753103 16.524 1.11172 17.532 1.54207C18.564 1.97241 19.464 2.37885 20.232 2.76138L17.208 8.53517Z" fill="white"/>
<path d="M28.4276 0.215172L32.9996 10.6152L37.6796 0.215172H45.3116L36.4916 17.2497V25.6772H29.5076V17.1779L20.8316 0.215172H28.4276Z" fill="white"/>
<path d="M61.5049 8.53517C61.5049 8.53517 61.3009 8.41563 60.8929 8.17655C60.4849 7.93747 59.9449 7.67448 59.2729 7.38759C58.6009 7.07678 57.8689 6.80184 57.0769 6.56276C56.2849 6.32368 55.5049 6.20414 54.7369 6.20414C54.1369 6.20414 53.6449 6.29977 53.2609 6.49103C52.8769 6.6823 52.6849 7.00506 52.6849 7.45931C52.6849 7.88966 52.8769 8.23632 53.2609 8.49931C53.6449 8.7623 54.1849 9.00138 54.8809 9.21655C55.6009 9.43172 56.4529 9.69471 57.4369 10.0055C59.0209 10.4837 60.3889 11.0336 61.5409 11.6552C62.6929 12.2768 63.5809 13.0777 64.2049 14.0579C64.8289 15.0143 65.1409 16.2933 65.1409 17.8952C65.1409 19.4253 64.8649 20.7163 64.3129 21.7683C63.7609 22.7963 63.0169 23.6211 62.0809 24.2428C61.1449 24.8644 60.1009 25.3186 58.9489 25.6055C57.7969 25.8685 56.6209 26 55.4209 26C54.1969 26 52.9129 25.8805 51.5689 25.6414C50.2489 25.3784 48.9649 25.0317 47.7169 24.6014C46.4689 24.1471 45.3289 23.6212 44.2969 23.0234L47.3209 16.891C47.3209 16.891 47.5609 17.0345 48.0409 17.3214C48.5209 17.6083 49.1569 17.931 49.9489 18.2897C50.7409 18.6483 51.6169 18.971 52.5769 19.2579C53.5609 19.5448 54.5449 19.6883 55.5289 19.6883C56.2969 19.6883 56.8249 19.5926 57.1129 19.4014C57.4249 19.1862 57.5809 18.9113 57.5809 18.5766C57.5809 18.0745 57.3169 17.692 56.7889 17.429C56.2609 17.1421 55.5649 16.8791 54.7009 16.64C53.8609 16.377 52.9249 16.0782 51.8929 15.7434C50.4049 15.2414 49.1809 14.6795 48.2209 14.0579C47.2609 13.4124 46.5529 12.6593 46.0969 11.7986C45.6409 10.914 45.4129 9.85011 45.4129 8.6069C45.4129 6.71816 45.8569 5.14023 46.7449 3.8731C47.6329 2.60598 48.7969 1.64966 50.2369 1.00414C51.7009 0.334713 53.2729 0 54.9529 0C56.2009 0 57.4009 0.155402 58.5529 0.466207C59.7289 0.753103 60.8209 1.11172 61.8289 1.54207C62.8609 1.97241 63.7609 2.37885 64.5289 2.76138L61.5049 8.53517Z" fill="white"/>
<path d="M74.1476 0.215172H81.9956L90.1316 25.6772H83.0036L81.4556 20.6924H74.6516L73.1396 25.6772H65.9756L74.1476 0.215172ZM80.3396 16.0303L78.0716 7.06483L75.6956 16.0303H80.3396Z" fill="#00A3FF"/>
<path d="M92.2553 25.6772V0.215172H102.083C104.915 0.215172 107.279 0.788965 109.175 1.93655C111.095 3.06023 112.535 4.59034 113.495 6.5269C114.479 8.43954 114.971 10.5674 114.971 12.9103C114.971 15.4924 114.431 17.7398 113.351 19.6524C112.295 21.5651 110.795 23.0474 108.851 24.0993C106.931 25.1513 104.675 25.6772 102.083 25.6772H92.2553ZM107.843 12.9103C107.843 11.5954 107.615 10.4478 107.159 9.46759C106.703 8.46345 106.043 7.68644 105.179 7.13655C104.315 6.58667 103.283 6.31172 102.083 6.31172H99.2753V19.5807H102.083C103.307 19.5807 104.339 19.2938 105.179 18.72C106.043 18.1462 106.703 17.3572 107.159 16.3531C107.615 15.3251 107.843 14.1775 107.843 12.9103Z" fill="#00A3FF"/>
<path d="M137.357 25.6772V12.2648L133.073 21.6966H129.329L125.045 12.2648V25.6772H118.025V0.215172H125.693L131.201 12.1931L136.745 0.215172H144.377V25.6772H137.357Z" fill="#00A3FF"/>
</svg>
